<?xml version="1.0" encoding="utf-8"?>
<!-- Generator: Adobe Illustrator 25.0.1, SVG Export Plug-In . SVG Version: 6.00 Build 0)  -->
<svg version="1.1" id="Layer_1" xmlns="http://www.w3.org/2000/svg" xmlns:xlink="http://www.w3.org/1999/xlink" x="0px" y="0px"
	 viewBox="0 0 254.6 82.8" style="enable-background:new 0 0 254.6 82.8;" xml:space="preserve">
<style type="text/css">
	.st0{fill:#33967E;}
	.st1{clip-path:url(#SVGID_2_);fill:url(#SVGID_3_);}
	.st2{fill-rule:evenodd;clip-rule:evenodd;fill:#4AB26F;}
	.st3{fill-rule:evenodd;clip-rule:evenodd;fill:#33967E;}
	.st4{clip-path:url(#SVGID_5_);fill:url(#SVGID_6_);}
	.st5{clip-path:url(#SVGID_8_);fill:url(#SVGID_9_);}
</style>
<g>
	<g>
		<g>
			<path class="st0" d="M85,53.5l2-2.8c2.8,2.1,5.9,3.3,9,3.3c3.1,0,5.4-1.6,5.4-4.1v-0.1c0-2.6-3.1-3.6-6.5-4.6
				c-4.1-1.1-8.6-2.6-8.6-7.3v-0.1c0-4.5,3.7-7.4,8.8-7.4c3.2,0,6.7,1.1,9.3,2.9l-1.8,2.9c-2.4-1.6-5.2-2.5-7.7-2.5
				c-3.1,0-5,1.6-5,3.8v0.1c0,2.5,3.2,3.4,6.7,4.5c4,1.2,8.3,2.8,8.3,7.4v0.1c0,4.9-4.1,7.8-9.2,7.8C92,57.3,87.9,55.8,85,53.5"/>
		</g>
		<g>
			<path class="st0" d="M106.4,44L106.4,44c0-7.4,5.7-13.6,13.5-13.6c7.8,0,13.5,6.1,13.5,13.4v0.1c0,7.3-5.8,13.5-13.6,13.5
				C112.1,57.4,106.4,51.3,106.4,44 M129.5,44L129.5,44c0-5.7-4.2-10.2-9.6-10.2c-5.6,0-9.5,4.6-9.5,10v0.1c0,5.6,4.1,10.1,9.6,10.1
				C125.6,53.9,129.5,49.4,129.5,44"/>
		</g>
		<g>
			<path class="st0" d="M136,47V30.9h3.9V46c0,4.8,2.6,7.8,7.2,7.8c4.4,0,7.8-3.3,7.8-8.1V30.9h3.8v25.9h-3.8v-4.5
				c-1.8,2.8-4.4,5.1-8.9,5.1C139.6,57.3,136,53.1,136,47"/>
		</g>
		<g>
			<path class="st0" d="M179.8,30.8c-0.7-0.1-1.4-0.3-2.1-0.3c0,0-0.6,0-0.8,0c-0.1,0-0.2,0-0.4,0c-3.8,0-7,1.5-9.4,4v-3.5h-3.9V44
				v0.1v12.7h4V43.9c0-5.6,4-10,9.3-10c0.2,0,0.4,0,0.6,0C177.9,32.7,178.8,31.7,179.8,30.8"/>
		</g>
		<g>
			<path class="st0" d="M191.4,53.9c-5.4,0-9.5-4.5-9.5-10.1v-0.1c0-2.4,0.8-4.7,2.1-6.4c0.8-1,1.7-1.8,2.8-2.5
				c1.3-0.7,2.8-1.2,4.4-1.2c3.5,0,5.8,1.7,7.8,3.8c0.4-1.3,1-2.5,1.7-3.5c-2.3-2.1-5.1-3.7-9.4-3.7c-2.7,0-5.2,0.8-7.3,2.2
				c-1.1,0.7-2,1.6-2.8,2.5c-2,2.4-3.2,5.5-3.2,8.8V44c0,7.3,5.7,13.4,13.3,13.4c4.1,0,7-1.5,9.4-3.8c-0.6-1-1.2-2.1-1.6-3.2
				C197,52.4,194.5,53.9,191.4,53.9"/>
		</g>
		<g>
			<path class="st0" d="M226.3,44.1c0-7.6-4.4-13.7-12.1-13.7c-3.3,0-6.2,1.3-8.4,3.4c-1.6,1.6-2.9,3.7-3.5,6.1
				c-0.3,1.3-0.5,2.6-0.5,4c0,1.3,0.2,2.4,0.4,3.5c0.6,2.6,1.8,4.7,3.5,6.4c2.3,2.3,5.5,3.6,9,3.6c4.9,0,8.1-2,10.7-4.9l-2.4-2.2
				c-2.1,2.2-4.6,3.7-8.2,3.7c-4.6,0-8.6-3.2-9.1-8.6h20.5C226.3,44.8,226.3,44.4,226.3,44.1 M205.7,42.3c0.6-5,4-8.7,8.4-8.7
				c5.1,0,7.8,4,8.3,8.7H205.7z"/>
		</g>
		<g>
			<path class="st0" d="M228.5,43.9v-0.1c0-8.5,6.2-13.5,12.4-13.5c4.8,0,7.9,2.6,9.9,5.5V20.2h3.9v36.6h-3.9v-5.2
				c-2.1,3.1-5.2,5.8-9.9,5.8C234.6,57.3,228.5,52.4,228.5,43.9 M250.9,43.9L250.9,43.9c0-6.1-4.6-10.1-9.4-10.1
				c-5,0-9.1,3.7-9.1,10v0.1c0,6.1,4.2,10,9.1,10C246.3,53.9,250.9,49.8,250.9,43.9"/>
		</g>
		<g>
			<path class="st0" d="M91.4,82.8c-3,0-5.3-2.4-5.3-5.3c0-2.9,2.3-5.4,5.3-5.4c1.9,0,3.2,0.8,4.1,1.8l-1,1.1
				c-0.8-0.9-1.7-1.5-3.1-1.5c-2.1,0-3.7,1.8-3.7,4c0,2.2,1.6,4,3.8,4c1.3,0,2.3-0.7,3.1-1.5l1,0.9C94.5,82,93.3,82.8,91.4,82.8z"/>
		</g>
		<g>
			<path class="st0" d="M97.1,82.6V68.1h1.5v14.5H97.1z"/>
		</g>
		<g>
			<path class="st0" d="M106,82.8c-3.1,0-5.3-2.4-5.3-5.3c0-2.9,2.3-5.4,5.4-5.4c3.1,0,5.3,2.4,5.3,5.3S109.1,82.8,106,82.8z
				 M106,73.5c-2.2,0-3.7,1.8-3.7,4s1.6,4,3.8,4c2.2,0,3.8-1.8,3.8-4C109.8,75.3,108.1,73.5,106,73.5z"/>
		</g>
		<g>
			<path class="st0" d="M120.5,72.3h1.5v10.2h-1.5v-1.8c-0.7,1.1-1.7,2-3.5,2c-2.5,0-3.9-1.7-3.9-4.1v-6.4h1.5v6
				c0,1.9,1,3.1,2.8,3.1c1.7,0,3.1-1.3,3.1-3.2V72.3z"/>
		</g>
		<g>
			<path class="st0" d="M132.7,82.6v-2.1c-0.8,1.2-2,2.3-3.9,2.3c-2.5,0-4.9-1.9-4.9-5.3c0-3.4,2.4-5.4,4.9-5.4c1.9,0,3.1,1,3.9,2.2
				v-6.2h1.5v14.5H132.7z M129.1,73.5c-2,0-3.6,1.5-3.6,4c0,2.4,1.7,4,3.6,4c1.9,0,3.7-1.6,3.7-4C132.8,75.1,131,73.5,129.1,73.5z"
				/>
		</g>
		<g>
			<path class="st0" d="M142.8,74.3l-0.5-1.2c1.1-0.5,2.2-0.9,3.7-0.9c2.8,0,4.4,1.4,4.4,4.1v6.3H149V81c-0.7,0.9-1.9,1.8-3.7,1.8
				c-1.9,0-3.8-1.1-3.8-3.2c0-2.2,1.8-3.3,4.4-3.3c1.3,0,2.2,0.2,3.2,0.4v-0.4c0-1.8-1.1-2.8-3.1-2.8
				C144.7,73.6,143.8,73.9,142.8,74.3z M143,79.5c0,1.3,1.2,2.1,2.6,2.1c1.9,0,3.4-1.1,3.4-2.8v-1c-0.8-0.2-1.8-0.4-3-0.4
				C144.1,77.4,143,78.2,143,79.5z"/>
		</g>
		<g>
			<path class="st0" d="M154.7,79.7c0,1.2,0.7,1.7,1.7,1.7c0.5,0,1-0.1,1.5-0.4v1.3c-0.5,0.3-1.1,0.4-1.8,0.4
				c-1.6,0-2.9-0.8-2.9-2.9v-6.2h-1.4v-1.3h1.4v-3.1h1.5v3.1h3.3v1.3h-3.3V79.7z"/>
			<path class="st0" d="M168.6,82.8c-1.5,0-3.1-0.6-4.2-1.5l0.8-1.1c1.1,0.8,2.3,1.3,3.5,1.3c1.2,0,2.1-0.6,2.1-1.6v0
				c0-1-1.2-1.4-2.6-1.8c-1.6-0.5-3.4-1-3.4-2.9v0c0-1.8,1.5-2.9,3.5-2.9c1.2,0,2.6,0.4,3.7,1.1l-0.7,1.1c-1-0.6-2-1-3-1
				c-1.2,0-2,0.6-2,1.5v0c0,1,1.3,1.3,2.6,1.8c1.6,0.5,3.3,1.1,3.3,2.9v0C172.2,81.7,170.6,82.8,168.6,82.8z"/>
			<path class="st0" d="M179,82.8c-3,0-5.3-2.4-5.3-5.3c0-2.9,2.3-5.4,5.3-5.4c1.9,0,3.2,0.8,4.1,1.8l-1,1.1
				c-0.8-0.9-1.7-1.5-3.1-1.5c-2.1,0-3.7,1.8-3.7,4c0,2.2,1.6,4,3.8,4c1.3,0,2.3-0.7,3.1-1.5l1,0.9C182.2,82,180.9,82.8,179,82.8z"
				/>
			<path class="st0" d="M185.6,74.3l-0.5-1.2c1.1-0.5,2.2-0.9,3.7-0.9c2.8,0,4.4,1.4,4.4,4.1v6.3h-1.5V81c-0.7,0.9-1.9,1.8-3.7,1.8
				c-1.9,0-3.8-1.1-3.8-3.2c0-2.2,1.8-3.3,4.4-3.3c1.3,0,2.2,0.2,3.2,0.4v-0.4c0-1.8-1.1-2.8-3.1-2.8
				C187.5,73.6,186.6,73.9,185.6,74.3z M185.8,79.5c0,1.3,1.2,2.1,2.6,2.1c1.9,0,3.4-1.1,3.4-2.8v-1c-0.8-0.2-1.8-0.4-3-0.4
				C186.9,77.4,185.8,78.2,185.8,79.5z"/>
			<path class="st0" d="M196,82.6V68.1h1.5v14.5H196z"/>
			<path class="st0" d="M204.9,81.5c1.4,0,2.4-0.6,3.2-1.4l1,0.9c-1,1.1-2.3,1.9-4.2,1.9c-2.8,0-5.1-2.2-5.1-5.4
				c0-3,2.1-5.4,4.9-5.4c3,0,4.8,2.4,4.8,5.4c0,0.1,0,0.3,0,0.5h-8.1C201.5,80.3,203.1,81.5,204.9,81.5z M207.9,76.9
				c-0.2-1.9-1.2-3.5-3.3-3.5c-1.8,0-3.1,1.5-3.3,3.5H207.9z"/>
		</g>
		<g>
			<path class="st0" d="M211.7,72.2h-0.5v-3.6h-1.4v-0.4h3.2v0.4h-1.4V72.2z"/>
			<path class="st0" d="M215.6,71.1L215.6,71.1l-1.5-2.2v3.3h-0.4v-4h0.5l1.5,2.2l1.5-2.2h0.5v4h-0.5V69L215.6,71.1z"/>
		</g>
	</g>
	<g>
		<g>
			<defs>
				<polygon id="SVGID_1_" points="15.6,22.6 71.4,44.6 53.9,24.4 				"/>
			</defs>
			<clipPath id="SVGID_2_">
				<use xlink:href="#SVGID_1_"  style="overflow:visible;"/>
			</clipPath>
			
				<linearGradient id="SVGID_3_" gradientUnits="userSpaceOnUse" x1="-219.9115" y1="645.6646" x2="-218.9115" y2="645.6646" gradientTransform="matrix(55.7537 0 0 55.7537 12276.5195 -35964.5469)">
				<stop  offset="0" style="stop-color:#75C05A"/>
				<stop  offset="1" style="stop-color:#51BE9E"/>
			</linearGradient>
			<rect x="15.6" y="22.6" class="st1" width="55.8" height="22"/>
		</g>
		<polygon class="st2" points="56.2,27 15.6,22.6 53.9,24.4 		"/>
		<polygon class="st3" points="15.6,22.6 16.1,30.2 71.4,44.6 		"/>
		<g>
			<defs>
				<polygon id="SVGID_4_" points="0,23.9 25.3,80.9 71.4,44.6 				"/>
			</defs>
			<clipPath id="SVGID_5_">
				<use xlink:href="#SVGID_4_"  style="overflow:visible;"/>
			</clipPath>
			
				<linearGradient id="SVGID_6_" gradientUnits="userSpaceOnUse" x1="-220.1715" y1="647.1559" x2="-219.1715" y2="647.1559" gradientTransform="matrix(71.4004 0 0 71.4004 15720.3232 -46154.7773)">
				<stop  offset="0" style="stop-color:#39A1B0"/>
				<stop  offset="0.6133" style="stop-color:#348F86"/>
				<stop  offset="1" style="stop-color:#328571"/>
			</linearGradient>
			<rect y="23.9" class="st4" width="71.4" height="57"/>
		</g>
		<g>
			<defs>
				<polygon id="SVGID_7_" points="15.6,22.6 66.2,25.9 32.2,0 				"/>
			</defs>
			<clipPath id="SVGID_8_">
				<use xlink:href="#SVGID_7_"  style="overflow:visible;"/>
			</clipPath>
			
				<linearGradient id="SVGID_9_" gradientUnits="userSpaceOnUse" x1="-219.766" y1="644.8301" x2="-218.766" y2="644.8301" gradientTransform="matrix(49.6639 0 0 49.6639 10931.2002 -32011.8125)">
				<stop  offset="0" style="stop-color:#75C05A"/>
				<stop  offset="0.6493" style="stop-color:#A0CD41"/>
				<stop  offset="1" style="stop-color:#B9D432"/>
			</linearGradient>
			<rect x="15.6" y="0" class="st5" width="50.6" height="25.9"/>
		</g>
	</g>
</g>
</svg>
