<?xml version="1.0" encoding="utf-8"?>
<!-- Generator: Adobe Illustrator 25.0.1, SVG Export Plug-In . SVG Version: 6.00 Build 0)  -->
<svg version="1.1" id="Layer_1" xmlns="http://www.w3.org/2000/svg" xmlns:xlink="http://www.w3.org/1999/xlink" x="0px" y="0px"
	 viewBox="0 0 254.6 82.8" style="enable-background:new 0 0 254.6 82.8;" xml:space="preserve">
<style type="text/css">
	.st0{fill:#65338C;}
	.st1{clip-path:url(#SVGID_2_);fill:url(#SVGID_3_);}
	.st2{fill-rule:evenodd;clip-rule:evenodd;fill:#65338C;}
	.st3{clip-path:url(#SVGID_5_);fill:url(#SVGID_6_);}
	.st4{clip-path:url(#SVGID_8_);fill:url(#SVGID_9_);}
</style>
<g id="Logo_-_Purple_1_">
	<g>
		<g>
			<g>
				<path class="st0" d="M85.3,53.4l2-2.8c2.8,2.1,5.9,3.3,9,3.3c3.1,0,5.4-1.6,5.4-4.1v-0.1c0-2.6-3.1-3.6-6.5-4.6
					c-4.1-1.1-8.6-2.6-8.6-7.3v-0.1c0-4.5,3.7-7.4,8.8-7.4c3.2,0,6.7,1.1,9.3,2.9l-1.8,2.9c-2.4-1.6-5.2-2.5-7.7-2.5
					c-3.1,0-5,1.6-5,3.8v0.1c0,2.5,3.2,3.4,6.7,4.5c4,1.2,8.3,2.8,8.3,7.4v0.1c0,4.9-4.1,7.8-9.2,7.8C92.3,57.2,88.2,55.8,85.3,53.4
					"/>
			</g>
			<g>
				<path class="st0" d="M106.8,43.9v-0.1c0-7.3,5.7-13.5,13.5-13.5c7.8,0,13.5,6.1,13.5,13.4v0.1c0,7.3-5.8,13.5-13.6,13.5
					C112.4,57.3,106.8,51.2,106.8,43.9 M129.8,43.9v-0.1c0-5.6-4.2-10.1-9.6-10.1c-5.6,0-9.5,4.6-9.5,10v0.1
					c0,5.6,4.1,10.1,9.6,10.1C125.9,53.9,129.8,49.4,129.8,43.9"/>
			</g>
			<g>
				<path class="st0" d="M136.3,46.9V30.9h3.9V46c0,4.8,2.6,7.8,7.2,7.8c4.4,0,7.8-3.3,7.8-8.1V30.9h3.8v25.9h-3.8v-4.5
					c-1.8,2.8-4.4,5.1-8.9,5.1C139.9,57.3,136.3,53.1,136.3,46.9"/>
			</g>
			<g>
				<path class="st0" d="M180,30.8c-0.7-0.1-1.4-0.3-2.1-0.3c0,0-0.6,0-0.8,0c-0.1,0-0.2,0-0.4,0c-3.8,0-7,1.5-9.4,4v-3.5h-3.9v13.1
					V44v12.7h4V43.8c0-5.6,4-10,9.3-10c0.2,0,0.4,0,0.6,0C178.1,32.7,179,31.7,180,30.8"/>
			</g>
			<g>
				<path class="st0" d="M191.6,53.9c-5.4,0-9.5-4.5-9.5-10.1v-0.1c0-2.4,0.8-4.7,2.1-6.4c0.8-1,1.7-1.8,2.8-2.5
					c1.3-0.7,2.8-1.2,4.4-1.2c3.5,0,5.7,1.7,7.8,3.8c0.4-1.3,1-2.5,1.7-3.5c-2.3-2.1-5.1-3.7-9.4-3.7c-2.7,0-5.2,0.8-7.3,2.2
					c-1.1,0.7-2,1.6-2.8,2.5c-2,2.4-3.2,5.5-3.2,8.8v0.1c0,7.3,5.7,13.4,13.3,13.4c4.1,0,7-1.5,9.4-3.8c-0.6-1-1.2-2.1-1.6-3.2
					C197.2,52.4,194.8,53.9,191.6,53.9"/>
			</g>
			<g>
				<path class="st0" d="M226.5,44c0-7.6-4.4-13.7-12.1-13.7c-3.3,0-6.2,1.3-8.4,3.4c-1.6,1.6-2.9,3.7-3.5,6.1
					c-0.3,1.3-0.5,2.6-0.5,4c0,1.3,0.2,2.4,0.4,3.5c0.6,2.6,1.8,4.7,3.5,6.4c2.3,2.3,5.5,3.6,9,3.6c4.9,0,8.1-2,10.7-4.9l-2.4-2.2
					c-2.1,2.2-4.6,3.7-8.2,3.7c-4.6,0-8.6-3.2-9.1-8.6h20.5C226.5,44.8,226.5,44.4,226.5,44 M206,42.3c0.6-5,4-8.7,8.4-8.7
					c5.1,0,7.8,4,8.3,8.7H206z"/>
			</g>
			<g>
				<path class="st0" d="M228.7,43.9v-0.1c0-8.5,6.2-13.5,12.4-13.5c4.8,0,7.9,2.6,9.9,5.5V20.2h3.9v36.5H251v-5.2
					c-2.1,3.1-5.2,5.8-9.9,5.8C234.9,57.3,228.7,52.4,228.7,43.9 M251.1,43.8L251.1,43.8c0-6.1-4.6-10.1-9.4-10.1
					c-5,0-9.1,3.7-9.1,10v0.1c0,6.1,4.2,10,9.1,10C246.6,53.8,251.1,49.8,251.1,43.8"/>
			</g>
			<g>
				<path class="st0" d="M91.7,82.8c-3,0-5.2-2.4-5.2-5.3c0-2.9,2.3-5.4,5.2-5.4c1.9,0,3.1,0.8,4.1,1.8l-1,1.1
					c-0.8-0.9-1.7-1.5-3.1-1.5c-2.1,0-3.7,1.8-3.7,4c0,2.2,1.6,4,3.8,4c1.3,0,2.3-0.7,3.1-1.5l1,0.9C94.8,81.9,93.6,82.8,91.7,82.8z
					"/>
			</g>
			<g>
				<path class="st0" d="M97.4,82.5V68.1h1.5v14.5H97.4z"/>
			</g>
			<g>
				<path class="st0" d="M106.3,82.8c-3.1,0-5.3-2.4-5.3-5.3s2.3-5.4,5.3-5.4c3.1,0,5.3,2.4,5.3,5.3S109.3,82.8,106.3,82.8z
					 M106.3,73.4c-2.2,0-3.7,1.8-3.7,4s1.6,4,3.8,4c2.2,0,3.8-1.8,3.8-4C110.1,75.2,108.4,73.4,106.3,73.4z"/>
			</g>
			<g>
				<path class="st0" d="M120.8,72.3h1.5v10.2h-1.5v-1.8c-0.7,1.1-1.7,2-3.5,2c-2.5,0-3.9-1.7-3.9-4.1v-6.4h1.5v6
					c0,1.9,1,3.1,2.8,3.1c1.7,0,3.1-1.3,3.1-3.2V72.3z"/>
			</g>
			<g>
				<path class="st0" d="M133,82.5v-2.1c-0.8,1.2-2,2.3-3.9,2.3c-2.5,0-4.9-1.9-4.9-5.3c0-3.4,2.4-5.3,4.9-5.3c1.9,0,3.1,1,3.9,2.2
					v-6.2h1.5v14.5H133z M129.4,73.4c-2,0-3.6,1.5-3.6,4c0,2.4,1.7,4,3.6,4c1.9,0,3.7-1.6,3.7-4C133.1,75,131.3,73.4,129.4,73.4z"/>
			</g>
			<g>
				<path class="st0" d="M143.1,74.3l-0.5-1.2c1.1-0.5,2.2-0.9,3.7-0.9c2.8,0,4.4,1.4,4.4,4.1v6.3h-1.5V81c-0.7,0.9-1.9,1.8-3.7,1.8
					c-1.9,0-3.8-1.1-3.8-3.2c0-2.2,1.8-3.3,4.4-3.3c1.3,0,2.2,0.2,3.1,0.4v-0.4c0-1.8-1.1-2.8-3-2.8C145,73.5,144.1,73.8,143.1,74.3
					z M143.3,79.5c0,1.3,1.2,2.1,2.6,2.1c1.9,0,3.4-1.1,3.4-2.8v-1c-0.8-0.2-1.8-0.4-3-0.4C144.3,77.3,143.3,78.2,143.3,79.5z"/>
			</g>
			<g>
				<path class="st0" d="M154.9,79.6c0,1.2,0.7,1.7,1.7,1.7c0.5,0,0.9-0.1,1.5-0.4v1.3c-0.5,0.3-1.1,0.4-1.8,0.4
					c-1.6,0-2.9-0.8-2.9-2.9v-6.2H152v-1.3h1.4v-3.1h1.5v3.1h3.2v1.3h-3.2V79.6z"/>
				<path class="st0" d="M168.9,82.7c-1.5,0-3.1-0.6-4.2-1.5l0.8-1.1c1.1,0.8,2.3,1.3,3.5,1.3c1.2,0,2.1-0.6,2.1-1.6v0
					c0-1-1.2-1.4-2.6-1.8c-1.6-0.5-3.4-1-3.4-2.9v0c0-1.8,1.5-2.9,3.5-2.9c1.2,0,2.6,0.4,3.7,1.1l-0.7,1.1c-1-0.6-2-1-3-1
					c-1.2,0-2,0.6-2,1.5v0c0,1,1.3,1.3,2.6,1.8c1.6,0.5,3.3,1.1,3.3,2.9v0C172.5,81.6,170.9,82.7,168.9,82.7z"/>
				<path class="st0" d="M179.3,82.8c-3,0-5.2-2.4-5.2-5.3c0-2.9,2.3-5.4,5.2-5.4c1.9,0,3.1,0.8,4.1,1.8l-1,1.1
					c-0.8-0.9-1.7-1.5-3.1-1.5c-2.1,0-3.7,1.8-3.7,4c0,2.2,1.6,4,3.8,4c1.3,0,2.3-0.7,3.1-1.5l1,0.9
					C182.4,81.9,181.2,82.8,179.3,82.8z"/>
				<path class="st0" d="M185.9,74.3l-0.5-1.2c1.1-0.5,2.2-0.9,3.7-0.9c2.8,0,4.4,1.4,4.4,4.1v6.3H192V81c-0.7,0.9-1.9,1.8-3.7,1.8
					c-1.9,0-3.8-1.1-3.8-3.2c0-2.2,1.8-3.3,4.4-3.3c1.3,0,2.2,0.2,3.1,0.4v-0.4c0-1.8-1.1-2.8-3-2.8
					C187.8,73.5,186.8,73.8,185.9,74.3z M186.1,79.5c0,1.3,1.2,2.1,2.6,2.1c1.9,0,3.4-1.1,3.4-2.8v-1c-0.8-0.2-1.8-0.4-3-0.4
					C187.1,77.3,186.1,78.2,186.1,79.5z"/>
				<path class="st0" d="M196.2,82.5V68.1h1.5v14.5H196.2z"/>
				<path class="st0" d="M205.1,81.4c1.4,0,2.4-0.6,3.2-1.4l0.9,0.9c-1,1.1-2.3,1.9-4.2,1.9c-2.8,0-5.1-2.2-5.1-5.3
					c0-3,2.1-5.3,4.9-5.3c3,0,4.8,2.4,4.8,5.4c0,0.1,0,0.3,0,0.5h-8.1C201.7,80.2,203.3,81.4,205.1,81.4z M208.1,76.8
					c-0.2-1.9-1.2-3.5-3.3-3.5c-1.8,0-3.1,1.5-3.3,3.5H208.1z"/>
			</g>
			<g>
				<path class="st0" d="M211.9,72.2h-0.5v-3.6h-1.4v-0.4h3.2v0.4h-1.4V72.2z"/>
				<path class="st0" d="M215.9,71.1L215.9,71.1l-1.5-2.2v3.3H214v-4h0.5l1.5,2.2l1.5-2.2h0.5v4h-0.5v-3.3L215.9,71.1z"/>
			</g>
		</g>
		<g>
			<g>
				<defs>
					<polygon id="SVGID_1_" points="15.6,22.6 71,44.4 53.6,24.3 					"/>
				</defs>
				<clipPath id="SVGID_2_">
					<use xlink:href="#SVGID_1_"  style="overflow:visible;"/>
				</clipPath>
				
					<linearGradient id="SVGID_3_" gradientUnits="userSpaceOnUse" x1="997.7806" y1="651.3224" x2="998.7813" y2="651.3224" gradientTransform="matrix(-128.4053 -63.3601 63.3601 -128.4053 86962.9141 146919.3438)">
					<stop  offset="0" style="stop-color:#C04D9A"/>
					<stop  offset="0.4205" style="stop-color:#984294"/>
					<stop  offset="1" style="stop-color:#65338C"/>
				</linearGradient>
				<polygon class="st1" points="79.7,26.8 26.4,0.6 6.9,40.1 60.1,66.4 				"/>
			</g>
			<polygon class="st2" points="55.9,26.9 15.6,22.6 53.6,24.3 			"/>
			<polygon class="st2" points="15.6,22.6 16,30.1 71,44.4 			"/>
			<g>
				<defs>
					<polygon id="SVGID_4_" points="0,23.8 25.2,80.5 71,44.4 					"/>
				</defs>
				<clipPath id="SVGID_5_">
					<use xlink:href="#SVGID_4_"  style="overflow:visible;"/>
				</clipPath>
				
					<linearGradient id="SVGID_6_" gradientUnits="userSpaceOnUse" x1="973.0381" y1="661.8356" x2="974.0389" y2="661.8356" gradientTransform="matrix(42.5206 47.4348 -47.4348 42.5206 -9976.8535 -74281.2812)">
					<stop  offset="0" style="stop-color:#DB69A4"/>
					<stop  offset="0.1989" style="stop-color:#C15D9F"/>
					<stop  offset="0.7438" style="stop-color:#7F3F91"/>
					<stop  offset="1" style="stop-color:#65338C"/>
				</linearGradient>
				<polygon class="st3" points="-28.2,49.1 31.6,115.8 99.2,55.2 39.4,-11.5 				"/>
			</g>
			<g>
				<defs>
					<polygon id="SVGID_7_" points="15.6,22.6 65.8,25.8 32.1,0.1 					"/>
				</defs>
				<clipPath id="SVGID_8_">
					<use xlink:href="#SVGID_7_"  style="overflow:visible;"/>
				</clipPath>
				
					<linearGradient id="SVGID_9_" gradientUnits="userSpaceOnUse" x1="1001.8361" y1="650.5986" x2="1002.8367" y2="650.5986" gradientTransform="matrix(-85.6329 -43.6551 43.6551 -85.6329 57446.0703 99469.6094)">
					<stop  offset="0" style="stop-color:#DB69A4"/>
					<stop  offset="0.1989" style="stop-color:#C15D9F"/>
					<stop  offset="0.7438" style="stop-color:#7F3F91"/>
					<stop  offset="1" style="stop-color:#65338C"/>
				</linearGradient>
				<polygon class="st4" points="76.3,5.4 25.9,-20.3 5.1,20.5 55.5,46.2 				"/>
			</g>
		</g>
	</g>
</g>
</svg>
